<svg width="19" height="19" viewBox="0 0 19 19" fill="none" xmlns="http://www.w3.org/2000/svg">
<path d="M7.11438 14.2648C8.82642 14.2648 10.4435 13.658 11.7303 12.5543L17.9858 18.8246C18.0407 18.8801 18.1061 18.9241 18.1781 18.9542C18.2501 18.9843 18.3274 18.9999 18.4054 19C18.4835 19.0001 18.5608 18.9848 18.6329 18.9549C18.705 18.925 18.7705 18.8811 18.8255 18.8258C18.937 18.7146 18.9998 18.5637 19 18.4062C19.0002 18.2488 18.9379 18.0977 18.8267 17.9862L12.5658 11.7112C14.9097 8.91238 14.7732 4.72129 12.1472 2.08991C10.8027 0.742154 9.01527 0 7.11378 0C5.2123 0 3.42484 0.742154 2.08038 2.08991C-0.693459 4.87031 -0.693459 9.39507 2.08038 12.1755C2.73934 12.8396 3.52365 13.3662 4.3878 13.7249C5.25195 14.0835 6.17873 14.2671 7.11438 14.2648ZM2.92185 2.92824C4.04184 1.80551 5.5306 1.18745 7.11438 1.18745C8.69815 1.18745 10.1869 1.80551 11.3069 2.92824C13.6199 5.24673 13.6199 9.01865 11.3069 11.3371C10.1869 12.4599 8.69815 13.0779 7.11438 13.0779C5.5306 13.0779 4.04184 12.4599 2.92185 11.3371C0.609431 9.01865 0.609431 5.24673 2.92185 2.92824Z" fill="#808080"/>
</svg>
